# Created by Kenney (www.kenney.nl)

mtllib lamp.mtl

v 1 3 -0.5
v 1 2 -0.5
v 1 3 0.5
v 1 2 0.5
v -1 3 -0.5
v -1 3 0.5
v -1 2 0.5
v -1 2 -0.5
v 0 3 -0.5
v 0 3 0.5
v 0 2 0.5
v 0 2 -0.5
v 2 2 -0.5
v 2 1 -0.5
v 2 2 0.5
v 2 1 0.5
v 1 1 0.5
v 1 1 -0.5
v -1 1 -0.5
v -1 1 0.5
v -2 2 -0.5
v -2 2 0.5
v -2 1 0.5
v -2 1 -0.5
v 3 1 -0.5
v 3 -1 -0.5
v 3 1 0.5
v 3 -1 0.5
v 2 -1 0.5
v 2 -1 -0.5
v -2 -1 -0.5
v -2 -1 0.5
v -3 1 -0.5
v -3 1 0.5
v -3 -1 0.5
v -3 -1 -0.5
v 2 -2 -0.5
v 2 -2 0.5
v 1 -1 -0.5
v 1 -1 0.5
v 1 -2 0.5
v 1 -2 -0.5
v -1 -1 -0.5
v -1 -2 -0.5
v -1 -1 0.5
v -1 -2 0.5
v -2 -2 0.5
v -2 -2 -0.5
v 1 -3 -0.5
v 1 -3 0.5
v -1 -3 0.5
v -1 -3 -0.5
v 1 2 -1
v 1 -2 -1
v 1 2 1
v 1 -2 1
v -1 2 -1
v -1 2 1
v -1 -2 1
v -1 -2 -1
v 2 1 -1
v 2 -1 -1
v 2 1 1
v 2 -1 1
v 1 1 -1
v 1 1 1
v 1 -1 1
v 1 -1 -1
v -1 1 -1
v -1 -1 -1
v -1 1 1
v -1 -1 1
v -2 1 -1
v -2 1 1
v -2 -1 1
v -2 -1 -1

vn 1 0 0
vn 0 1 0
vn 0 -1 0
vn -1 0 0
vn 0 0 -1
vn 0 0 1

vt -19.68504 19.68504
vt 19.68504 19.68504
vt -19.68504 -19.68504
vt 0 NaN
vt 0 0
vt 0 NaN
vt 0 NaN
vt 0 NaN
vt 0 NaN
vt 0 NaN
vt 19.68504 -19.68504
vt 0 NaN
vt 0 NaN
vt 0 NaN
vt 0 NaN
vt 0 NaN
vt 0 NaN
vt 0 NaN
vt 0 NaN
vt 0 NaN
vt 0 NaN
vt 0 NaN
vt 0 NaN
vt 0 NaN
vt 0 NaN
vt 0 NaN
vt 0 NaN
vt 0 NaN
vt 0 NaN
vt 0 NaN
vt 0 NaN
vt 0 NaN
vt 0 NaN
vt 0 NaN
vt 0 NaN
vt 0 NaN
vt 0 NaN
vt 0 NaN
vt 0 NaN
vt 0 NaN
vt 0 NaN
vt 0 NaN
vt 0 NaN
vt 0 NaN
vt 0 NaN
vt 0 NaN
vt 0 NaN
vt 0 NaN
vt 0 NaN
vt 0 NaN
vt 0 NaN
vt 0 NaN
vt 0 NaN
vt 0 NaN
vt 0 NaN
vt 0 NaN
vt 0 NaN
vt 0 NaN
vt 0 NaN
vt 0 NaN
vt 0 NaN
vt 0 NaN
vt 0 NaN
vt 0 NaN
vt 0 NaN
vt 0 NaN
vt 0 NaN
vt 0 NaN
vt 0 NaN
vt 0 NaN
vt 0 NaN

usemtl color14

f 3/3/1 2/2/1 1/1/1
f 2/3/1 3/2/1 4/1/1
f 5/3/2 3/2/2 1/1/2
f 3/3/2 5/2/2 6/1/2
f 7/5/3 2/5/3 4/4/3
f 2/5/3 7/5/3 8/6/3
f 7/5/4 5/5/4 8/7/4
f 5/5/4 7/5/4 6/8/4
f 5/5/5 2/5/5 8/9/5
f 2/5/5 5/5/5 1/10/5
f 3/2/6 7/3/6 4/11/6
f 7/3/6 3/2/6 6/1/6
f 3/3/1 2/2/1 1/1/1
f 2/3/1 3/2/1 4/1/1
f 9/3/2 3/2/2 1/1/2
f 3/3/2 9/2/2 10/1/2
f 11/5/3 2/5/3 4/4/3
f 2/5/3 11/5/3 12/12/3
f 11/5/4 9/5/4 12/13/4
f 9/5/4 11/5/4 10/14/4
f 9/5/5 2/5/5 12/15/5
f 2/5/5 9/5/5 1/10/5
f 3/2/6 11/3/6 4/11/6
f 11/3/6 3/2/6 10/1/6
f 15/3/1 14/2/1 13/1/1
f 14/3/1 15/2/1 16/1/1
f 2/3/2 15/2/2 13/1/2
f 15/3/2 2/2/2 4/1/2
f 17/5/3 14/5/3 16/16/3
f 14/5/3 17/5/3 18/17/3
f 17/5/4 2/5/4 18/18/4
f 2/5/4 17/5/4 4/19/4
f 2/5/5 14/5/5 18/20/5
f 14/5/5 2/5/5 13/21/5
f 15/2/6 17/3/6 16/11/6
f 17/3/6 15/2/6 4/1/6
f 7/3/1 19/2/1 8/1/1
f 19/3/1 7/2/1 20/1/1
f 21/3/2 7/2/2 8/1/2
f 7/3/2 21/2/2 22/1/2
f 23/5/3 19/5/3 20/22/3
f 19/5/3 23/5/3 24/23/3
f 23/5/4 21/5/4 24/24/4
f 21/5/4 23/5/4 22/25/4
f 21/5/5 19/5/5 24/26/5
f 19/5/5 21/5/5 8/9/5
f 7/2/6 23/3/6 20/11/6
f 23/3/6 7/2/6 22/1/6
f 27/3/1 26/2/1 25/1/1
f 26/3/1 27/2/1 28/1/1
f 14/3/2 27/2/2 25/1/2
f 27/3/2 14/2/2 16/1/2
f 29/5/3 26/5/3 28/27/3
f 26/5/3 29/5/3 30/28/3
f 29/5/4 14/5/4 30/29/4
f 14/5/4 29/5/4 16/30/4
f 14/5/5 26/5/5 30/31/5
f 26/5/5 14/5/5 25/32/5
f 27/2/6 29/3/6 28/11/6
f 29/3/6 27/2/6 16/1/6
f 23/3/1 31/2/1 24/1/1
f 31/3/1 23/2/1 32/1/1
f 33/3/2 23/2/2 24/1/2
f 23/3/2 33/2/2 34/1/2
f 35/5/3 31/5/3 32/33/3
f 31/5/3 35/5/3 36/34/3
f 35/5/4 33/5/4 36/35/4
f 33/5/4 35/5/4 34/36/4
f 33/5/5 31/5/5 36/37/5
f 31/5/5 33/5/5 24/26/5
f 23/2/6 35/3/6 32/11/6
f 35/3/6 23/2/6 34/1/6
f 29/3/1 37/2/1 30/1/1
f 37/3/1 29/2/1 38/1/1
f 39/3/2 29/2/2 30/1/2
f 29/3/2 39/2/2 40/1/2
f 41/5/3 37/5/3 38/38/3
f 37/5/3 41/5/3 42/39/3
f 41/5/4 39/5/4 42/40/4
f 39/5/4 41/5/4 40/41/4
f 39/5/5 37/5/5 42/42/5
f 37/5/5 39/5/5 30/31/5
f 29/2/6 41/3/6 38/11/6
f 41/3/6 29/2/6 40/1/6
f 45/3/1 44/2/1 43/1/1
f 44/3/1 45/2/1 46/1/1
f 31/3/2 45/2/2 43/1/2
f 45/3/2 31/2/2 32/1/2
f 47/5/3 44/5/3 46/43/3
f 44/5/3 47/5/3 48/44/3
f 47/5/4 31/5/4 48/45/4
f 31/5/4 47/5/4 32/46/4
f 31/5/5 44/5/5 48/47/5
f 44/5/5 31/5/5 43/48/5
f 45/2/6 47/3/6 46/11/6
f 47/3/6 45/2/6 32/1/6
f 41/3/1 49/2/1 42/1/1
f 49/3/1 41/2/1 50/1/1
f 44/3/2 41/2/2 42/1/2
f 41/3/2 44/2/2 46/1/2
f 51/5/3 49/5/3 50/49/3
f 49/5/3 51/5/3 52/50/3
f 51/5/4 44/5/4 52/51/4
f 44/5/4 51/5/4 46/52/4
f 44/5/5 49/5/5 52/53/5
f 49/5/5 44/5/5 42/42/5
f 41/2/6 51/3/6 50/11/6
f 51/3/6 41/2/6 46/1/6

usemtl color5

f 55/3/1 54/2/1 53/1/1
f 54/3/1 55/2/1 56/1/1
f 57/3/2 55/2/2 53/1/2
f 55/3/2 57/2/2 58/1/2
f 59/5/3 54/5/3 56/54/3
f 54/5/3 59/5/3 60/55/3
f 59/5/4 57/5/4 60/56/4
f 57/5/4 59/5/4 58/57/4
f 57/5/5 54/5/5 60/58/5
f 54/5/5 57/5/5 53/59/5
f 55/2/6 59/3/6 56/11/6
f 59/3/6 55/2/6 58/1/6
f 63/3/1 62/2/1 61/1/1
f 62/3/1 63/2/1 64/1/1
f 65/3/2 63/2/2 61/1/2
f 63/3/2 65/2/2 66/1/2
f 67/5/3 62/5/3 64/60/3
f 62/5/3 67/5/3 68/61/3
f 67/5/4 65/5/4 68/62/4
f 65/5/4 67/5/4 66/63/4
f 65/5/5 62/5/5 68/64/5
f 62/5/5 65/5/5 61/65/5
f 63/2/6 67/3/6 64/11/6
f 67/3/6 63/2/6 66/1/6
f 71/3/1 70/2/1 69/1/1
f 70/3/1 71/2/1 72/1/1
f 73/3/2 71/2/2 69/1/2
f 71/3/2 73/2/2 74/1/2
f 75/5/3 70/5/3 72/66/3
f 70/5/3 75/5/3 76/67/3
f 75/5/4 73/5/4 76/68/4
f 73/5/4 75/5/4 74/69/4
f 73/5/5 70/5/5 76/70/5
f 70/5/5 73/5/5 69/71/5
f 71/2/6 75/3/6 72/11/6
f 75/3/6 71/2/6 74/1/6

