# Created by Kenney (www.kenney.nl)

mtllib red.mtl

v 3 7 -1
v 3 6 -1
v 3 7 1
v 3 6 1
v -3 7 -1
v -3 7 1
v -3 6 1
v -3 6 -1
v 2 7 -1
v 2 7 1
v 2 6 1
v 2 6 -1
v 4 6 -1
v 4 5 -1
v 4 6 1
v 4 5 1
v 3 5 1
v 3 5 -1
v -3 5 -1
v -3 5 1
v -4 6 -1
v -4 6 1
v -4 5 1
v -4 5 -1
v 5 5 -1
v 5 4 -1
v 5 5 1
v 5 4 1
v 4 4 1
v 4 4 -1
v -4 4 -1
v -4 4 1
v -5 5 -1
v -5 5 1
v -5 4 1
v -5 4 -1
v 6 4 -1
v 6 3 -1
v 6 4 1
v 6 3 1
v 5 3 1
v 5 3 -1
v -5 3 -1
v -5 3 1
v -6 4 -1
v -6 4 1
v -6 3 1
v -6 3 -1
v 7 3 -1
v 7 -3 -1
v 7 3 1
v 7 -3 1
v 6 -3 1
v 6 -3 -1
v -6 -3 -1
v -6 -3 1
v -7 3 -1
v -7 3 1
v -7 -3 1
v -7 -3 -1
v 6 -4 -1
v 6 -4 1
v 5 -3 -1
v 5 -3 1
v 5 -4 1
v 5 -4 -1
v -5 -3 -1
v -5 -4 -1
v -5 -3 1
v -5 -4 1
v -6 -4 1
v -6 -4 -1
v 5 -5 -1
v 5 -5 1
v 4 -4 -1
v 4 -4 1
v 4 -5 1
v 4 -5 -1
v -4 -4 -1
v -4 -5 -1
v -4 -4 1
v -4 -5 1
v -5 -5 1
v -5 -5 -1
v 4 -6 -1
v 4 -6 1
v 3 -5 -1
v 3 -5 1
v 3 -6 1
v 3 -6 -1
v -3 -5 -1
v -3 -6 -1
v -3 -5 1
v -3 -6 1
v -4 -6 1
v -4 -6 -1
v 3 -7 -1
v 3 -7 1
v -3 -7 1
v -3 -7 -1
v 3 4 1
v 3 4 -1
v 3 5 -1.5
v 3 4 -1.5
v 3 5 1.5
v 3 4 1.5
v -3 5 -1.5
v -3 5 1.5
v -3 4 1.5
v -3 4 -1.5
v -3 4 -1
v -3 4 1
v 4 3 1
v 4 3 -1
v 4 4 -1.5
v 4 3 -1.5
v 4 4 1.5
v 4 3 1.5
v 3 3 1.5
v 3 3 -1.5
v 3 4 -2
v 3 -4 -2
v 3 4 2
v 3 -4 2
v -3 4 -2
v -3 4 2
v -3 -4 2
v -3 -4 -2
v -3 3 -1.5
v -3 3 1.5
v -4 4 -1.5
v -4 4 1.5
v -4 3 1.5
v -4 3 -1.5
v -4 3 -1
v -4 3 1
v 5 3 -1.5
v 5 -3 -1.5
v 5 3 1.5
v 5 -3 1.5
v 4 -3 1.5
v 4 -3 -1.5
v 4 3 -2
v 4 -3 -2
v 4 3 2
v 4 -3 2
v 3 3 -2
v 3 3 2
v 3 -3 2
v 3 -3 -2
v -3 3 -2
v -3 -3 -2
v -3 3 2
v -3 -3 2
v -4 3 -2
v -4 3 2
v -4 -3 2
v -4 -3 -2
v -4 -3 -1.5
v -4 -3 1.5
v -5 3 -1.5
v -5 3 1.5
v -5 -3 1.5
v -5 -3 -1.5
v 4 -3 -1
v 4 -3 1
v 4 -4 -1.5
v 4 -4 1.5
v 3 -3 -1.5
v 3 -3 1.5
v 3 -4 1.5
v 3 -4 -1.5
v -3 -3 -1.5
v -3 -4 -1.5
v -3 -3 1.5
v -3 -4 1.5
v -4 -4 1.5
v -4 -4 -1.5
v -4 -3 -1
v -4 -3 1
v 3 -4 -1
v 3 -4 1
v 3 -5 -1.5
v 3 -5 1.5
v -3 -5 1.5
v -3 -5 -1.5
v -3 -4 -1
v -3 -4 1

vn 1 0 0
vn 0 1 0
vn 0 -1 0
vn -1 0 0
vn 0 0 -1
vn 0 0 1

vt -19.68504 19.68504
vt 19.68504 19.68504
vt -19.68504 -19.68504
vt 0 NaN
vt 0 0
vt 0 NaN
vt 0 NaN
vt 0 NaN
vt 0 NaN
vt 0 NaN
vt 19.68504 -19.68504
vt 0 NaN
vt 0 NaN
vt 0 NaN
vt 0 NaN
vt 0 NaN
vt 0 NaN
vt 0 NaN
vt 0 NaN
vt 0 NaN
vt 0 NaN
vt 0 NaN
vt 0 NaN
vt 0 NaN
vt 0 NaN
vt 0 NaN
vt 0 NaN
vt 0 NaN
vt 0 NaN
vt 0 NaN
vt 0 NaN
vt 0 NaN
vt 0 NaN
vt 0 NaN
vt 0 NaN
vt 0 NaN
vt 0 NaN
vt 0 NaN
vt 0 NaN
vt 0 NaN
vt 0 NaN
vt 0 NaN
vt 0 NaN
vt 0 NaN
vt 0 NaN
vt 0 NaN
vt 0 NaN
vt 0 NaN
vt 0 NaN
vt 0 NaN
vt 0 NaN
vt 0 NaN
vt 0 NaN
vt 0 NaN
vt 0 NaN
vt 0 NaN
vt 0 NaN
vt 0 NaN
vt 0 NaN
vt 0 NaN
vt 0 NaN
vt 0 NaN
vt 0 NaN
vt 0 NaN
vt 0 NaN
vt 0 NaN
vt 0 NaN
vt 0 NaN
vt 0 NaN
vt 0 NaN
vt 0 NaN
vt 0 NaN
vt 0 NaN
vt 0 NaN
vt 0 NaN
vt 0 NaN
vt 0 NaN
vt 0 NaN
vt 0 NaN
vt 0 NaN
vt 0 NaN
vt 0 NaN
vt 0 NaN
vt 0 NaN
vt 0 NaN
vt 0 NaN
vt 0 NaN
vt 0 NaN
vt 0 NaN
vt 0 NaN
vt 0 NaN
vt 0 NaN
vt 0 NaN
vt 0 NaN
vt 0 NaN
vt 0 NaN
vt 0 NaN
vt 0 NaN
vt 0 NaN
vt 0 NaN
vt 0 NaN
vt 0 NaN
vt 0 NaN
vt 0 NaN
vt 0 NaN
vt 0 NaN
vt 0 NaN
vt 0 NaN
vt 0 NaN
vt 0 NaN
vt 0 NaN
vt 0 NaN
vt 0 NaN
vt 0 NaN
vt 0 NaN
vt 0 NaN
vt 0 NaN
vt 0 NaN
vt 0 NaN
vt 0 NaN
vt 0 NaN
vt 0 NaN
vt 0 NaN
vt 0 NaN
vt 0 NaN
vt 0 NaN
vt 0 NaN
vt 0 NaN
vt 0 NaN
vt 0 NaN
vt 0 NaN
vt 0 NaN
vt 0 NaN
vt 0 NaN
vt 0 NaN
vt 0 NaN
vt 0 NaN
vt 0 NaN
vt 0 NaN
vt 0 NaN
vt 0 NaN
vt 0 NaN
vt 0 NaN
vt 0 NaN
vt 0 NaN
vt 0 NaN
vt 0 NaN
vt 0 NaN
vt 0 NaN
vt 0 NaN
vt 0 NaN
vt 0 NaN
vt 0 NaN
vt 0 NaN
vt 0 NaN
vt 0 NaN
vt 0 NaN
vt 0 NaN
vt 0 NaN
vt 0 NaN
vt 0 NaN
vt 0 NaN
vt 0 NaN
vt 0 NaN
vt 0 NaN
vt 0 NaN
vt 0 NaN
vt 0 NaN
vt 0 NaN
vt 0 NaN
vt 0 NaN
vt 0 NaN
vt 0 NaN
vt 0 NaN
vt 0 NaN
vt 0 NaN
vt 0 NaN
vt 0 NaN
vt 0 NaN
vt 0 NaN
vt 0 NaN
vt 0 NaN
vt 0 NaN

usemtl color14

f 3/3/1 2/2/1 1/1/1
f 2/3/1 3/2/1 4/1/1
f 5/3/2 3/2/2 1/1/2
f 3/3/2 5/2/2 6/1/2
f 7/5/3 2/5/3 4/4/3
f 2/5/3 7/5/3 8/6/3
f 7/5/4 5/5/4 8/7/4
f 5/5/4 7/5/4 6/8/4
f 5/5/5 2/5/5 8/9/5
f 2/5/5 5/5/5 1/10/5
f 3/2/6 7/3/6 4/11/6
f 7/3/6 3/2/6 6/1/6
f 3/3/1 2/2/1 1/1/1
f 2/3/1 3/2/1 4/1/1
f 9/3/2 3/2/2 1/1/2
f 3/3/2 9/2/2 10/1/2
f 11/5/3 2/5/3 4/4/3
f 2/5/3 11/5/3 12/12/3
f 11/5/4 9/5/4 12/13/4
f 9/5/4 11/5/4 10/14/4
f 9/5/5 2/5/5 12/15/5
f 2/5/5 9/5/5 1/10/5
f 3/2/6 11/3/6 4/11/6
f 11/3/6 3/2/6 10/1/6
f 15/3/1 14/2/1 13/1/1
f 14/3/1 15/2/1 16/1/1
f 2/3/2 15/2/2 13/1/2
f 15/3/2 2/2/2 4/1/2
f 17/5/3 14/5/3 16/16/3
f 14/5/3 17/5/3 18/17/3
f 17/5/4 2/5/4 18/18/4
f 2/5/4 17/5/4 4/19/4
f 2/5/5 14/5/5 18/20/5
f 14/5/5 2/5/5 13/21/5
f 15/2/6 17/3/6 16/11/6
f 17/3/6 15/2/6 4/1/6
f 7/3/1 19/2/1 8/1/1
f 19/3/1 7/2/1 20/1/1
f 21/3/2 7/2/2 8/1/2
f 7/3/2 21/2/2 22/1/2
f 23/5/3 19/5/3 20/22/3
f 19/5/3 23/5/3 24/23/3
f 23/5/4 21/5/4 24/24/4
f 21/5/4 23/5/4 22/25/4
f 21/5/5 19/5/5 24/26/5
f 19/5/5 21/5/5 8/9/5
f 7/2/6 23/3/6 20/11/6
f 23/3/6 7/2/6 22/1/6
f 27/3/1 26/2/1 25/1/1
f 26/3/1 27/2/1 28/1/1
f 14/3/2 27/2/2 25/1/2
f 27/3/2 14/2/2 16/1/2
f 29/5/3 26/5/3 28/27/3
f 26/5/3 29/5/3 30/28/3
f 29/5/4 14/5/4 30/29/4
f 14/5/4 29/5/4 16/30/4
f 14/5/5 26/5/5 30/31/5
f 26/5/5 14/5/5 25/32/5
f 27/2/6 29/3/6 28/11/6
f 29/3/6 27/2/6 16/1/6
f 23/3/1 31/2/1 24/1/1
f 31/3/1 23/2/1 32/1/1
f 33/3/2 23/2/2 24/1/2
f 23/3/2 33/2/2 34/1/2
f 35/5/3 31/5/3 32/33/3
f 31/5/3 35/5/3 36/34/3
f 35/5/4 33/5/4 36/35/4
f 33/5/4 35/5/4 34/36/4
f 33/5/5 31/5/5 36/37/5
f 31/5/5 33/5/5 24/26/5
f 23/2/6 35/3/6 32/11/6
f 35/3/6 23/2/6 34/1/6
f 39/3/1 38/2/1 37/1/1
f 38/3/1 39/2/1 40/1/1
f 26/3/2 39/2/2 37/1/2
f 39/3/2 26/2/2 28/1/2
f 41/5/3 38/5/3 40/38/3
f 38/5/3 41/5/3 42/39/3
f 41/5/4 26/5/4 42/40/4
f 26/5/4 41/5/4 28/41/4
f 26/5/5 38/5/5 42/42/5
f 38/5/5 26/5/5 37/43/5
f 39/2/6 41/3/6 40/11/6
f 41/3/6 39/2/6 28/1/6
f 35/3/1 43/2/1 36/1/1
f 43/3/1 35/2/1 44/1/1
f 45/3/2 35/2/2 36/1/2
f 35/3/2 45/2/2 46/1/2
f 47/5/3 43/5/3 44/44/3
f 43/5/3 47/5/3 48/45/3
f 47/5/4 45/5/4 48/46/4
f 45/5/4 47/5/4 46/47/4
f 45/5/5 43/5/5 48/48/5
f 43/5/5 45/5/5 36/37/5
f 35/2/6 47/3/6 44/11/6
f 47/3/6 35/2/6 46/1/6
f 51/3/1 50/2/1 49/1/1
f 50/3/1 51/2/1 52/1/1
f 38/3/2 51/2/2 49/1/2
f 51/3/2 38/2/2 40/1/2
f 53/5/3 50/5/3 52/49/3
f 50/5/3 53/5/3 54/50/3
f 53/5/4 38/5/4 54/51/4
f 38/5/4 53/5/4 40/52/4
f 38/5/5 50/5/5 54/53/5
f 50/5/5 38/5/5 49/54/5
f 51/2/6 53/3/6 52/11/6
f 53/3/6 51/2/6 40/1/6
f 47/3/1 55/2/1 48/1/1
f 55/3/1 47/2/1 56/1/1
f 57/3/2 47/2/2 48/1/2
f 47/3/2 57/2/2 58/1/2
f 59/5/3 55/5/3 56/55/3
f 55/5/3 59/5/3 60/56/3
f 59/5/4 57/5/4 60/57/4
f 57/5/4 59/5/4 58/58/4
f 57/5/5 55/5/5 60/59/5
f 55/5/5 57/5/5 48/48/5
f 47/2/6 59/3/6 56/11/6
f 59/3/6 47/2/6 58/1/6
f 53/3/1 61/2/1 54/1/1
f 61/3/1 53/2/1 62/1/1
f 63/3/2 53/2/2 54/1/2
f 53/3/2 63/2/2 64/1/2
f 65/5/3 61/5/3 62/60/3
f 61/5/3 65/5/3 66/61/3
f 65/5/4 63/5/4 66/62/4
f 63/5/4 65/5/4 64/63/4
f 63/5/5 61/5/5 66/64/5
f 61/5/5 63/5/5 54/53/5
f 53/2/6 65/3/6 62/11/6
f 65/3/6 53/2/6 64/1/6
f 69/3/1 68/2/1 67/1/1
f 68/3/1 69/2/1 70/1/1
f 55/3/2 69/2/2 67/1/2
f 69/3/2 55/2/2 56/1/2
f 71/5/3 68/5/3 70/65/3
f 68/5/3 71/5/3 72/66/3
f 71/5/4 55/5/4 72/67/4
f 55/5/4 71/5/4 56/68/4
f 55/5/5 68/5/5 72/69/5
f 68/5/5 55/5/5 67/70/5
f 69/2/6 71/3/6 70/11/6
f 71/3/6 69/2/6 56/1/6
f 65/3/1 73/2/1 66/1/1
f 73/3/1 65/2/1 74/1/1
f 75/3/2 65/2/2 66/1/2
f 65/3/2 75/2/2 76/1/2
f 77/5/3 73/5/3 74/71/3
f 73/5/3 77/5/3 78/72/3
f 77/5/4 75/5/4 78/73/4
f 75/5/4 77/5/4 76/74/4
f 75/5/5 73/5/5 78/75/5
f 73/5/5 75/5/5 66/64/5
f 65/2/6 77/3/6 74/11/6
f 77/3/6 65/2/6 76/1/6
f 81/3/1 80/2/1 79/1/1
f 80/3/1 81/2/1 82/1/1
f 68/3/2 81/2/2 79/1/2
f 81/3/2 68/2/2 70/1/2
f 83/5/3 80/5/3 82/76/3
f 80/5/3 83/5/3 84/77/3
f 83/5/4 68/5/4 84/78/4
f 68/5/4 83/5/4 70/79/4
f 68/5/5 80/5/5 84/80/5
f 80/5/5 68/5/5 79/81/5
f 81/2/6 83/3/6 82/11/6
f 83/3/6 81/2/6 70/1/6
f 77/3/1 85/2/1 78/1/1
f 85/3/1 77/2/1 86/1/1
f 87/3/2 77/2/2 78/1/2
f 77/3/2 87/2/2 88/1/2
f 89/5/3 85/5/3 86/82/3
f 85/5/3 89/5/3 90/83/3
f 89/5/4 87/5/4 90/84/4
f 87/5/4 89/5/4 88/85/4
f 87/5/5 85/5/5 90/86/5
f 85/5/5 87/5/5 78/75/5
f 77/2/6 89/3/6 86/11/6
f 89/3/6 77/2/6 88/1/6
f 93/3/1 92/2/1 91/1/1
f 92/3/1 93/2/1 94/1/1
f 80/3/2 93/2/2 91/1/2
f 93/3/2 80/2/2 82/1/2
f 95/5/3 92/5/3 94/87/3
f 92/5/3 95/5/3 96/88/3
f 95/5/4 80/5/4 96/89/4
f 80/5/4 95/5/4 82/90/4
f 80/5/5 92/5/5 96/91/5
f 92/5/5 80/5/5 91/92/5
f 93/2/6 95/3/6 94/11/6
f 95/3/6 93/2/6 82/1/6
f 89/3/1 97/2/1 90/1/1
f 97/3/1 89/2/1 98/1/1
f 92/3/2 89/2/2 90/1/2
f 89/3/2 92/2/2 94/1/2
f 99/5/3 97/5/3 98/93/3
f 97/5/3 99/5/3 100/94/3
f 99/5/4 92/5/4 100/95/4
f 92/5/4 99/5/4 94/96/4
f 92/5/5 97/5/5 100/97/5
f 97/5/5 92/5/5 90/86/5
f 89/2/6 99/3/6 98/11/6
f 99/3/6 89/2/6 94/1/6

usemtl color9

f 4/3/1 18/2/1 2/1/1
f 18/3/1 4/2/1 17/1/1
f 8/3/2 4/2/2 2/1/2
f 4/3/2 8/2/2 7/1/2
f 20/22/3 18/17/3 17/5/3
f 18/17/3 20/22/3 19/5/3
f 20/5/4 8/7/4 19/98/4
f 8/7/4 20/5/4 7/5/4
f 8/9/5 18/20/5 19/5/5
f 18/20/5 8/9/5 2/5/5
f 4/2/6 20/3/6 17/11/6
f 20/3/6 4/2/6 7/1/6
f 16/3/1 30/2/1 14/1/1
f 30/3/1 16/2/1 29/1/1
f 18/3/2 16/2/2 14/1/2
f 16/3/2 18/2/2 17/1/2
f 101/5/3 30/28/3 29/5/3
f 30/28/3 101/5/3 102/99/3
f 101/5/4 18/18/4 102/100/4
f 18/18/4 101/5/4 17/5/4
f 18/20/5 30/31/5 102/101/5
f 30/31/5 18/20/5 14/5/5
f 16/2/6 101/3/6 29/11/6
f 101/3/6 16/2/6 17/1/6
f 105/3/1 104/2/1 103/1/1
f 104/3/1 105/2/1 106/1/1
f 107/3/2 105/2/2 103/1/2
f 105/3/2 107/2/2 108/1/2
f 109/5/3 104/5/3 106/102/3
f 104/5/3 109/5/3 110/103/3
f 109/5/4 107/5/4 110/104/4
f 107/5/4 109/5/4 108/105/4
f 107/5/5 104/5/5 110/106/5
f 104/5/5 107/5/5 103/107/5
f 105/2/6 109/3/6 106/11/6
f 109/3/6 105/2/6 108/1/6
f 20/3/1 111/2/1 19/1/1
f 111/3/1 20/2/1 112/1/1
f 24/3/2 20/2/2 19/1/2
f 20/3/2 24/2/2 23/1/2
f 32/33/3 111/5/3 112/108/3
f 111/5/3 32/33/3 31/5/3
f 32/5/4 24/24/4 31/109/4
f 24/24/4 32/5/4 23/5/4
f 24/26/5 111/5/5 31/5/5
f 111/5/5 24/26/5 19/5/5
f 20/2/6 32/3/6 112/11/6
f 32/3/6 20/2/6 23/1/6
f 28/3/1 42/2/1 26/1/1
f 42/3/1 28/2/1 41/1/1
f 30/3/2 28/2/2 26/1/2
f 28/3/2 30/2/2 29/1/2
f 113/5/3 42/39/3 41/5/3
f 42/39/3 113/5/3 114/110/3
f 113/5/4 30/29/4 114/111/4
f 30/29/4 113/5/4 29/5/4
f 30/31/5 42/42/5 114/112/5
f 42/42/5 30/31/5 26/5/5
f 28/2/6 113/3/6 41/11/6
f 113/3/6 28/2/6 29/1/6
f 117/3/1 116/2/1 115/1/1
f 116/3/1 117/2/1 118/1/1
f 104/3/2 117/2/2 115/1/2
f 117/3/2 104/2/2 106/1/2
f 119/5/3 116/5/3 118/113/3
f 116/5/3 119/5/3 120/114/3
f 119/5/4 104/5/4 120/115/4
f 104/5/4 119/5/4 106/116/4
f 104/5/5 116/5/5 120/117/5
f 116/5/5 104/5/5 115/118/5
f 117/2/6 119/3/6 118/11/6
f 119/3/6 117/2/6 106/1/6
f 123/3/1 122/2/1 121/1/1
f 122/3/1 123/2/1 124/1/1
f 125/3/2 123/2/2 121/1/2
f 123/3/2 125/2/2 126/1/2
f 127/5/3 122/5/3 124/119/3
f 122/5/3 127/5/3 128/120/3
f 127/5/4 125/5/4 128/121/4
f 125/5/4 127/5/4 126/122/4
f 125/5/5 122/5/5 128/123/5
f 122/5/5 125/5/5 121/124/5
f 123/2/6 127/3/6 124/11/6
f 127/3/6 123/2/6 126/1/6
f 109/3/1 129/2/1 110/1/1
f 129/3/1 109/2/1 130/1/1
f 131/3/2 109/2/2 110/1/2
f 109/3/2 131/2/2 132/1/2
f 133/5/3 129/5/3 130/125/3
f 129/5/3 133/5/3 134/126/3
f 133/5/4 131/5/4 134/127/4
f 131/5/4 133/5/4 132/128/4
f 131/5/5 129/5/5 134/129/5
f 129/5/5 131/5/5 110/106/5
f 109/2/6 133/3/6 130/11/6
f 133/3/6 109/2/6 132/1/6
f 32/3/1 135/2/1 31/1/1
f 135/3/1 32/2/1 136/1/1
f 36/3/2 32/2/2 31/1/2
f 32/3/2 36/2/2 35/1/2
f 44/44/3 135/5/3 136/130/3
f 135/5/3 44/44/3 43/5/3
f 44/5/4 36/35/4 43/131/4
f 36/35/4 44/5/4 35/5/4
f 36/37/5 135/5/5 43/5/5
f 135/5/5 36/37/5 31/5/5
f 32/2/6 44/3/6 136/11/6
f 44/3/6 32/2/6 35/1/6
f 40/3/1 54/2/1 38/1/1
f 54/3/1 40/2/1 53/1/1
f 42/3/2 40/2/2 38/1/2
f 40/3/2 42/2/2 41/1/2
f 64/5/3 54/50/3 53/5/3
f 54/50/3 64/5/3 63/132/3
f 64/63/4 42/40/4 63/5/4
f 42/40/4 64/63/4 41/5/4
f 42/42/5 54/53/5 63/5/5
f 54/53/5 42/42/5 38/5/5
f 40/2/6 64/3/6 53/11/6
f 64/3/6 40/2/6 41/1/6
f 139/3/1 138/2/1 137/1/1
f 138/3/1 139/2/1 140/1/1
f 116/3/2 139/2/2 137/1/2
f 139/3/2 116/2/2 118/1/2
f 141/5/3 138/5/3 140/133/3
f 138/5/3 141/5/3 142/134/3
f 141/5/4 116/5/4 142/135/4
f 116/5/4 141/5/4 118/136/4
f 116/5/5 138/5/5 142/137/5
f 138/5/5 116/5/5 137/138/5
f 139/2/6 141/3/6 140/11/6
f 141/3/6 139/2/6 118/1/6
f 145/3/1 144/2/1 143/1/1
f 144/3/1 145/2/1 146/1/1
f 147/3/2 145/2/2 143/1/2
f 145/3/2 147/2/2 148/1/2
f 149/5/3 144/5/3 146/139/3
f 144/5/3 149/5/3 150/140/3
f 149/5/4 147/5/4 150/141/4
f 147/5/4 149/5/4 148/142/4
f 147/5/5 144/5/5 150/143/5
f 144/5/5 147/5/5 143/144/5
f 145/2/6 149/3/6 146/11/6
f 149/3/6 145/2/6 148/1/6
f 153/3/1 152/2/1 151/1/1
f 152/3/1 153/2/1 154/1/1
f 155/3/2 153/2/2 151/1/2
f 153/3/2 155/2/2 156/1/2
f 157/5/3 152/5/3 154/145/3
f 152/5/3 157/5/3 158/146/3
f 157/5/4 155/5/4 158/147/4
f 155/5/4 157/5/4 156/148/4
f 155/5/5 152/5/5 158/149/5
f 152/5/5 155/5/5 151/150/5
f 153/2/6 157/3/6 154/11/6
f 157/3/6 153/2/6 156/1/6
f 133/3/1 159/2/1 134/1/1
f 159/3/1 133/2/1 160/1/1
f 161/3/2 133/2/2 134/1/2
f 133/3/2 161/2/2 162/1/2
f 163/5/3 159/5/3 160/151/3
f 159/5/3 163/5/3 164/152/3
f 163/5/4 161/5/4 164/153/4
f 161/5/4 163/5/4 162/154/4
f 161/5/5 159/5/5 164/155/5
f 159/5/5 161/5/5 134/129/5
f 133/2/6 163/3/6 160/11/6
f 163/3/6 133/2/6 162/1/6
f 44/3/1 67/2/1 43/1/1
f 67/3/1 44/2/1 69/1/1
f 48/3/2 44/2/2 43/1/2
f 44/3/2 48/2/2 47/1/2
f 56/55/3 67/5/3 69/156/3
f 67/5/3 56/55/3 55/5/3
f 56/68/4 48/46/4 55/5/4
f 48/46/4 56/68/4 47/5/4
f 48/48/5 67/70/5 55/5/5
f 67/70/5 48/48/5 43/5/5
f 44/2/6 56/3/6 69/11/6
f 56/3/6 44/2/6 47/1/6
f 64/3/1 66/2/1 63/1/1
f 66/3/1 64/2/1 65/1/1
f 165/3/2 64/2/2 63/1/2
f 64/3/2 165/2/2 166/1/2
f 76/5/3 66/61/3 65/5/3
f 66/61/3 76/5/3 75/157/3
f 76/74/4 165/5/4 75/5/4
f 165/5/4 76/74/4 166/158/4
f 165/5/5 66/64/5 75/5/5
f 66/64/5 165/5/5 63/5/5
f 64/2/6 76/3/6 65/11/6
f 76/3/6 64/2/6 166/1/6
f 141/3/1 167/2/1 142/1/1
f 167/3/1 141/2/1 168/1/1
f 169/3/2 141/2/2 142/1/2
f 141/3/2 169/2/2 170/1/2
f 171/5/3 167/5/3 168/159/3
f 167/5/3 171/5/3 172/160/3
f 171/5/4 169/5/4 172/161/4
f 169/5/4 171/5/4 170/162/4
f 169/5/5 167/5/5 172/163/5
f 167/5/5 169/5/5 142/137/5
f 141/2/6 171/3/6 168/11/6
f 171/3/6 141/2/6 170/1/6
f 175/3/1 174/2/1 173/1/1
f 174/3/1 175/2/1 176/1/1
f 159/3/2 175/2/2 173/1/2
f 175/3/2 159/2/2 160/1/2
f 177/5/3 174/5/3 176/164/3
f 174/5/3 177/5/3 178/165/3
f 177/5/4 159/5/4 178/166/4
f 159/5/4 177/5/4 160/167/4
f 159/5/5 174/5/5 178/168/5
f 174/5/5 159/5/5 173/169/5
f 175/2/6 177/3/6 176/11/6
f 177/3/6 175/2/6 160/1/6
f 180/3/1 79/2/1 179/1/1
f 79/3/1 180/2/1 81/1/1
f 67/3/2 180/2/2 179/1/2
f 180/3/2 67/2/2 69/1/2
f 70/65/3 79/5/3 81/170/3
f 79/5/3 70/65/3 68/5/3
f 70/79/4 67/5/4 68/5/4
f 67/5/4 70/79/4 69/171/4
f 67/70/5 79/81/5 68/5/5
f 79/81/5 67/70/5 179/172/5
f 180/2/6 70/3/6 81/11/6
f 70/3/6 180/2/6 69/1/6
f 76/3/1 78/2/1 75/1/1
f 78/3/1 76/2/1 77/1/1
f 181/3/2 76/2/2 75/1/2
f 76/3/2 181/2/2 182/1/2
f 88/5/3 78/72/3 77/5/3
f 78/72/3 88/5/3 87/173/3
f 88/85/4 181/5/4 87/5/4
f 181/5/4 88/85/4 182/174/4
f 181/5/5 78/75/5 87/5/5
f 78/75/5 181/5/5 75/5/5
f 76/2/6 88/3/6 77/11/6
f 88/3/6 76/2/6 182/1/6
f 171/3/1 183/2/1 172/1/1
f 183/3/1 171/2/1 184/1/1
f 174/3/2 171/2/2 172/1/2
f 171/3/2 174/2/2 176/1/2
f 185/5/3 183/5/3 184/175/3
f 183/5/3 185/5/3 186/176/3
f 185/5/4 174/5/4 186/177/4
f 174/5/4 185/5/4 176/178/4
f 174/5/5 183/5/5 186/179/5
f 183/5/5 174/5/5 172/163/5
f 171/2/6 185/3/6 184/11/6
f 185/3/6 171/2/6 176/1/6
f 188/3/1 91/2/1 187/1/1
f 91/3/1 188/2/1 93/1/1
f 79/3/2 188/2/2 187/1/2
f 188/3/2 79/2/2 81/1/2
f 82/76/3 91/5/3 93/180/3
f 91/5/3 82/76/3 80/5/3
f 82/90/4 79/5/4 80/5/4
f 79/5/4 82/90/4 81/181/4
f 79/81/5 91/92/5 80/5/5
f 91/92/5 79/81/5 187/182/5
f 188/2/6 82/3/6 93/11/6
f 82/3/6 188/2/6 81/1/6
f 88/3/1 90/2/1 87/1/1
f 90/3/1 88/2/1 89/1/1
f 91/3/2 88/2/2 87/1/2
f 88/3/2 91/2/2 93/1/2
f 94/87/3 90/83/3 89/5/3
f 90/83/3 94/87/3 92/5/3
f 94/96/4 91/5/4 92/5/4
f 91/5/4 94/96/4 93/183/4
f 91/92/5 90/86/5 92/5/5
f 90/86/5 91/92/5 87/5/5
f 88/2/6 94/3/6 89/11/6
f 94/3/6 88/2/6 93/1/6

